<svg width="25" height="24" viewBox="0 0 25 24" fill="none" xmlns="http://www.w3.org/2000/svg">
<g clip-path="url(#clip0_460_1574)">
<path d="M21.4921 18.8918L21.4922 18.8917L19.3186 16.674C18.9229 16.3016 18.4246 16.0546 17.887 15.9648C17.3465 15.8745 16.7913 15.9473 16.2928 16.1738L15.979 16.3164L15.7348 16.0731L14.7868 15.1287L14.4797 14.8227L14.7401 14.4761C15.7813 13.09 16.2567 11.3627 16.0708 9.64185C15.885 7.92098 15.0516 6.33373 13.7379 5.19981C12.4242 4.06585 10.7277 3.46955 8.98989 3.53143C7.25211 3.59332 5.60274 4.30876 4.3737 5.5332C3.14471 6.75758 2.42725 8.39998 2.36519 10.1297C2.30313 11.8593 2.90106 13.5485 4.03909 14.8571C5.17716 16.1657 6.77097 16.9966 8.49986 17.182C10.2288 17.3673 11.9637 16.8932 13.3555 15.8555L13.7004 15.5983L14.0053 15.902L14.9427 16.8359L15.2001 17.0924L15.0348 17.4159C14.7823 17.91 14.6919 18.4704 14.7761 19.0183C14.8602 19.5653 15.1143 20.0726 15.5029 20.4687C15.5035 20.4693 15.5041 20.4699 15.5047 20.4705L17.7338 22.6912L21.4921 18.8918ZM21.4921 18.8918L21.5004 18.8999M21.4921 18.8918L21.5004 18.8999M21.5004 18.8999C21.7538 19.1467 21.9551 19.4414 22.0924 19.7666C22.2298 20.0918 22.3005 20.441 22.3005 20.7937C22.3005 21.1464 22.2298 21.4956 22.0924 21.8208C21.9551 22.146 21.7538 22.4407 21.5004 22.6875L21.5004 22.6875M21.5004 18.8999L21.5004 22.6875M21.5004 22.6875L21.4967 22.6912M21.5004 22.6875L21.4967 22.6912M21.4967 22.6912C20.9978 23.1876 20.3211 23.4668 19.6152 23.4668C18.9094 23.4668 18.2329 23.1877 17.734 22.6914L21.4967 22.6912ZM21.0535 20.1716L20.5936 20.3639L21.0535 20.1716C20.9748 19.9833 20.8596 19.8125 20.7146 19.6689C20.7142 19.6685 20.7138 19.6682 20.7135 19.6678L18.4833 17.446C18.4831 17.4458 18.4828 17.4456 18.4826 17.4453C18.3384 17.3007 18.167 17.1859 17.9784 17.1076C17.7894 17.0292 17.5868 16.9888 17.3822 16.9888C17.1776 16.9888 16.975 17.0292 16.786 17.1076C16.5977 17.1858 16.4266 17.3003 16.2825 17.4446C16.1377 17.5881 16.0225 17.7588 15.9439 17.9469C15.8649 18.1357 15.8243 18.3382 15.8243 18.5428C15.8243 18.7474 15.8649 18.9499 15.9439 19.1387C16.0226 19.327 16.1379 19.4979 16.283 19.6415C16.2833 19.6418 16.2836 19.6421 16.284 19.6424L18.5141 21.8642C18.5144 21.8645 18.5148 21.8649 18.5151 21.8652C18.6592 22.0097 18.8305 22.1244 19.019 22.2026C19.208 22.281 19.4106 22.3214 19.6152 22.3214C19.8198 22.3214 20.0224 22.281 20.2114 22.2026C20.3997 22.1244 20.5709 22.01 20.7149 21.8657C20.8598 21.7221 20.9749 21.5515 21.0535 21.3633L20.5936 21.171L21.0535 21.3633C21.1325 21.1746 21.1731 20.9721 21.1731 20.7675C21.1731 20.5628 21.1325 20.3603 21.0535 20.1716ZM10.3158 16.0148C11.4334 15.7944 12.4605 15.2489 13.2675 14.447C13.8045 13.9134 14.2306 13.2794 14.5214 12.5813C14.8122 11.8831 14.9619 11.1346 14.9619 10.3787C14.9619 9.6227 14.8122 8.87419 14.5214 8.17605C14.2306 7.47791 13.8045 6.84391 13.2675 6.3103C12.4605 5.50839 11.4334 4.96295 10.3158 4.74258C9.19825 4.52222 8.04019 4.63675 6.98784 5.07179C5.93547 5.50684 5.03583 6.24298 4.40277 7.18751C3.7697 8.13206 3.43171 9.24255 3.43171 10.3787C3.43171 11.5148 3.7697 12.6253 4.40277 13.5698C5.03583 14.5144 5.93547 15.2505 6.98784 15.6855C8.04019 16.1206 9.19825 16.2351 10.3158 16.0148Z" stroke="#BCBCC6" stroke-width="0.996986"/>
</g>
<defs>
<clipPath id="clip0_460_1574">
<rect width="23.9277" height="23.9277" fill="white" transform="translate(0.865234 0.0375977)"/>
</clipPath>
</defs>
</svg>
