<svg width="230" height="59" viewBox="0 0 230 59" fill="none" xmlns="http://www.w3.org/2000/svg">
<g clip-path="url(#clip0_449_1555)">
<g filter="url(#filter0_f_449_1555)">
<rect x="7.95459" y="8.50146" width="43.1855" height="43.1855" rx="21.5928" fill="#587DFF"/>
</g>
<rect x="54.7251" y="54.5898" width="43.1855" height="43.1855" rx="21.5928" transform="rotate(180 54.7251 54.5898)" fill="url(#paint0_linear_449_1555)"/>
<rect x="53.4131" y="47.5957" width="43.1855" height="43.1855" rx="21.5928" transform="rotate(180 53.4131 47.5957)" fill="url(#paint1_linear_449_1555)"/>
<g opacity="0.6">
<rect x="50.0039" y="54.4146" width="46.3676" height="46.3676" rx="23.1838" transform="rotate(180 50.0039 54.4146)" fill="white"/>
<rect x="50.0039" y="54.4146" width="46.3676" height="46.3676" rx="23.1838" transform="rotate(180 50.0039 54.4146)" fill="url(#paint2_linear_449_1555)" fill-opacity="0.8"/>
</g>
<rect x="7.95459" y="8.50146" width="43.1855" height="43.1855" rx="21.5928" fill="#141414"/>
<path d="M35.3411 38.3103C34.1515 39.4618 32.8527 39.28 31.6024 38.7345C30.2793 38.177 29.0654 38.1527 27.6695 38.7345C25.9215 39.486 24.999 39.2678 23.9551 38.3103C18.0315 32.2136 18.9054 22.9291 25.6302 22.5897C27.2689 22.6746 28.41 23.4867 29.3689 23.5594C30.8013 23.2685 32.1729 22.4322 33.7024 22.5412C35.5353 22.6867 36.9191 23.4139 37.8295 24.723C34.0422 26.9895 34.9405 31.9712 38.4121 33.365C37.7202 35.1832 36.822 36.9891 35.3289 38.3224L35.3411 38.3103Z" fill="white"/>
<path d="M24.0725 38.3105C25.2621 39.462 26.5609 39.2802 27.8112 38.7348C29.1343 38.1772 30.3481 38.153 31.7441 38.7348C33.492 39.4863 34.4146 39.2681 35.4585 38.3105C41.3821 32.2138 40.5081 22.9293 33.7834 22.59C32.1446 22.6748 31.0036 23.4869 30.0447 23.5596C28.6123 23.2687 27.2407 22.4324 25.7112 22.5415C23.8783 22.6869 22.4945 23.4142 21.5841 24.7232C25.3713 26.9898 24.4731 31.9714 21.0014 33.3653C21.6933 35.1834 22.5916 36.9894 24.0846 38.3227L24.0725 38.3105Z" fill="white"/>
<path d="M25.0106 17.3924C24.8285 20.0953 27.0256 22.3255 29.5504 22.5437C29.9024 19.4166 26.71 17.0894 25.0106 17.3924Z" fill="white"/>
<path d="M82.2551 11.9639C85.1319 11.9639 87.3094 12.6156 88.7875 13.9189C90.2816 15.2222 91.0286 17.1295 91.0286 19.6408V19.9507C91.0286 22.462 90.2816 24.3693 88.7875 25.6726C87.3094 26.96 85.1319 27.6038 82.2551 27.6038H74.6974V11.9639H82.2551ZM82.2551 24.9335C84.1941 24.9335 85.6326 24.5282 86.5703 23.7176C87.5239 22.907 88.0008 21.6673 88.0008 19.9984V19.617C88.0008 16.2951 86.0776 14.6342 82.2312 14.6342H77.6775V24.9335H82.2551ZM100.569 27.8899C99.1069 27.8899 97.8354 27.6514 96.7546 27.1746C95.6738 26.6819 94.8393 25.9826 94.2513 25.0766C93.6791 24.1706 93.393 23.1057 93.393 21.8819V21.5243C93.393 20.2845 93.6791 19.2117 94.2513 18.3057C94.8234 17.3838 95.6499 16.6766 96.7307 16.1838C97.8115 15.6911 99.091 15.4448 100.569 15.4448C102.031 15.4448 103.295 15.6911 104.36 16.1838C105.425 16.6766 106.243 17.3838 106.816 18.3057C107.388 19.2117 107.674 20.2845 107.674 21.5243V21.8819C107.674 23.1057 107.388 24.1706 106.816 25.0766C106.243 25.9826 105.425 26.6819 104.36 27.1746C103.295 27.6514 102.031 27.8899 100.569 27.8899ZM100.545 25.2673C101.849 25.2673 102.866 24.9733 103.597 24.3852C104.344 23.7812 104.718 22.9468 104.718 21.8819V21.5243C104.718 20.4276 104.352 19.5772 103.621 18.9733C102.89 18.3693 101.865 18.0673 100.545 18.0673C99.1943 18.0673 98.1533 18.3693 97.4221 18.9733C96.7069 19.5613 96.3493 20.4117 96.3493 21.5243V21.8819C96.3493 22.9468 96.7148 23.7812 97.446 24.3852C98.193 24.9733 99.2261 25.2673 100.545 25.2673ZM117.582 15.4448C119.664 15.4448 121.237 15.9693 122.302 17.0183C123.383 18.0673 123.923 19.609 123.923 21.6435V27.6038H121.062V21.6435C121.062 20.4832 120.737 19.6011 120.085 18.9971C119.449 18.3772 118.519 18.0673 117.295 18.0673C116.453 18.0673 115.682 18.266 114.983 18.6633C114.299 19.0448 113.783 19.5693 113.433 20.2368V27.6038H110.572V15.7309H113.242L113.338 17.0183C114.434 16.0011 115.849 15.4765 117.582 15.4448ZM129.62 27.8899C129.095 27.8899 128.666 27.7309 128.332 27.413C128.015 27.0951 127.856 26.6819 127.856 26.1733C127.856 25.6647 128.015 25.2514 128.332 24.9335C128.666 24.6157 129.095 24.4567 129.62 24.4567C130.144 24.4567 130.566 24.6157 130.883 24.9335C131.217 25.2514 131.384 25.6647 131.384 26.1733C131.384 26.6819 131.217 27.0951 130.883 27.413C130.566 27.7309 130.144 27.8899 129.62 27.8899ZM138.441 15.7309V27.6038H135.58V15.7309H138.441ZM137.01 14.1097C136.454 14.1097 136.001 13.9428 135.651 13.609C135.302 13.2752 135.127 12.8461 135.127 12.3216C135.127 11.813 135.302 11.3918 135.651 11.058C136.001 10.7242 136.454 10.5573 137.01 10.5573C137.567 10.5573 138.019 10.7242 138.369 11.058C138.719 11.3759 138.894 11.7971 138.894 12.3216C138.894 12.8461 138.719 13.2752 138.369 13.609C138.019 13.9428 137.567 14.1097 137.01 14.1097ZM152.224 11.9639C154.02 11.9639 155.435 12.401 156.468 13.2752C157.517 14.1335 158.041 15.3097 158.041 16.8037V17.066C158.041 18.56 157.517 19.7441 156.468 20.6183C155.435 21.4766 154.02 21.9057 152.224 21.9057H145.429V27.6038H142.449V11.9639H152.224ZM152.153 19.2355C153.074 19.2355 153.782 19.0527 154.274 18.6872C154.767 18.3057 155.013 17.7653 155.013 17.066V16.8037C155.013 16.1044 154.767 15.5719 154.274 15.2063C153.782 14.8249 153.074 14.6342 152.153 14.6342H145.429V19.2355H152.153ZM168.081 15.4448C170.147 15.4448 171.721 15.9693 172.802 17.0183C173.882 18.0673 174.423 19.609 174.423 21.6435V27.6038H171.562V21.6435C171.562 20.4832 171.236 19.6011 170.584 18.9971C169.949 18.3772 169.019 18.0673 167.795 18.0673C166.953 18.0673 166.182 18.266 165.482 18.6633C164.799 19.0607 164.282 19.5931 163.933 20.2607V27.6038H161.072V11.0103H163.933V16.9229C165.061 15.9375 166.444 15.4448 168.081 15.4448ZM184.339 27.8899C182.877 27.8899 181.605 27.6514 180.525 27.1746C179.444 26.6819 178.609 25.9826 178.021 25.0766C177.449 24.1706 177.163 23.1057 177.163 21.8819V21.5243C177.163 20.2845 177.449 19.2117 178.021 18.3057C178.594 17.3838 179.42 16.6766 180.501 16.1838C181.582 15.6911 182.861 15.4448 184.339 15.4448C185.801 15.4448 187.065 15.6911 188.13 16.1838C189.195 16.6766 190.013 17.3838 190.586 18.3057C191.158 19.2117 191.444 20.2845 191.444 21.5243V21.8819C191.444 23.1057 191.158 24.1706 190.586 25.0766C190.013 25.9826 189.195 26.6819 188.13 27.1746C187.065 27.6514 185.801 27.8899 184.339 27.8899ZM184.315 25.2673C185.619 25.2673 186.636 24.9733 187.367 24.3852C188.114 23.7812 188.488 22.9468 188.488 21.8819V21.5243C188.488 20.4276 188.122 19.5772 187.391 18.9733C186.66 18.3693 185.635 18.0673 184.315 18.0673C182.964 18.0673 181.923 18.3693 181.192 18.9733C180.477 19.5613 180.119 20.4117 180.119 21.5243V21.8819C180.119 22.9468 180.485 23.7812 181.216 24.3852C181.963 24.9733 182.996 25.2673 184.315 25.2673ZM201.352 15.4448C203.434 15.4448 205.007 15.9693 206.072 17.0183C207.153 18.0673 207.693 19.609 207.693 21.6435V27.6038H204.832V21.6435C204.832 20.4832 204.507 19.6011 203.855 18.9971C203.219 18.3772 202.289 18.0673 201.065 18.0673C200.223 18.0673 199.452 18.266 198.753 18.6633C198.069 19.0448 197.553 19.5693 197.203 20.2368V27.6038H194.342V15.7309H197.012L197.108 17.0183C198.205 16.0011 199.619 15.4765 201.352 15.4448ZM224.381 22.621H213.438C213.549 23.4633 213.954 24.115 214.653 24.5759C215.369 25.0369 216.314 25.2673 217.491 25.2673C218.587 25.2673 219.477 25.1084 220.161 24.7905C220.844 24.4726 221.226 24.0435 221.305 23.5031H224.381C224.222 24.9018 223.538 25.9826 222.33 26.7455C221.138 27.5084 219.525 27.8899 217.491 27.8899C216.044 27.8899 214.789 27.6514 213.724 27.1746C212.675 26.6819 211.864 25.9905 211.292 25.1004C210.72 24.1945 210.434 23.1375 210.434 21.9296V21.4527C210.434 20.2289 210.72 19.164 211.292 18.258C211.864 17.3521 212.683 16.6607 213.748 16.1838C214.812 15.6911 216.06 15.4448 217.491 15.4448C219.652 15.4448 221.337 15.9693 222.545 17.0183C223.769 18.0673 224.381 19.5137 224.381 21.3574V22.621ZM217.467 18.0673C216.418 18.0673 215.551 18.258 214.868 18.6395C214.185 19.0209 213.74 19.5534 213.533 20.2368H221.281C221.091 19.5534 220.661 19.0209 219.994 18.6395C219.326 18.258 218.484 18.0673 217.467 18.0673Z" fill="url(#paint3_linear_449_1555)"/>
<path d="M76.1842 41.4376H73.646C73.4261 41.4376 73.2541 41.385 73.1298 41.2798C73.0151 41.1651 72.9577 41.0074 72.9577 40.8066V40.7349C72.9577 40.5341 73.0151 40.3812 73.1298 40.276C73.2541 40.1709 73.4261 40.1183 73.646 40.1183H80.2137C80.663 40.1183 80.8877 40.3238 80.8877 40.7349V40.8066C80.8877 41.0074 80.8303 41.1651 80.7156 41.2798C80.6009 41.385 80.4336 41.4376 80.2137 41.4376H77.6755V48.7796C77.6755 49.2289 77.4557 49.4536 77.0159 49.4536H76.8151C76.3945 49.4536 76.1842 49.2289 76.1842 48.7796V41.4376ZM81.9068 45.9833C81.9068 45.295 82.0598 44.6736 82.3657 44.1191C82.6716 43.5551 83.0923 43.1153 83.6276 42.7999C84.163 42.4844 84.7653 42.3266 85.4345 42.3266C86.0941 42.3266 86.6725 42.4748 87.1696 42.7712C87.6667 43.058 88.0539 43.4643 88.3311 43.9901C88.6084 44.5159 88.747 45.1182 88.747 45.7969V45.9116C88.747 46.0646 88.7135 46.1745 88.6466 46.2414C88.5893 46.2988 88.4793 46.3275 88.3168 46.3275H83.2261C83.2261 46.3848 83.2357 46.4709 83.2548 46.5856C83.36 47.1496 83.6181 47.6037 84.0292 47.9479C84.4498 48.2921 84.966 48.4641 85.5779 48.4641C86.1323 48.4641 86.5817 48.3638 86.9258 48.163C87.27 47.9527 87.5424 47.6707 87.7432 47.3169C87.7623 47.2978 87.834 47.3122 87.9583 47.36C88.0921 47.3982 88.2116 47.4747 88.3168 47.5894C88.4315 47.6946 88.4889 47.838 88.4889 48.0196C88.4889 48.1726 88.422 48.3399 88.2881 48.5215C88.1543 48.7031 87.9679 48.8704 87.7289 49.0234C87.1361 49.3962 86.4096 49.5827 85.5492 49.5827C84.8322 49.5827 84.1965 49.4345 83.642 49.1381C83.0971 48.8322 82.6716 48.4068 82.3657 47.8619C82.0598 47.3169 81.9068 46.6908 81.9068 45.9833ZM87.3704 45.3667C87.3321 44.7644 87.1409 44.2864 86.7968 43.9327C86.4526 43.579 85.9937 43.4021 85.4201 43.4021C84.8561 43.4021 84.3733 43.5886 83.9718 43.9614C83.5703 44.3247 83.3265 44.7931 83.2405 45.3667H87.3704ZM93.2687 45.9547L91.0173 42.9433C90.9982 42.9146 91.0221 42.8572 91.089 42.7712C91.1559 42.6851 91.2467 42.6087 91.3615 42.5417C91.4857 42.4653 91.6244 42.427 91.7773 42.427C91.9685 42.427 92.131 42.4748 92.2649 42.5704C92.4083 42.666 92.5421 42.8142 92.6664 43.015L94.2008 45.209L95.7065 43.015C95.955 42.623 96.2466 42.427 96.5812 42.427C96.7342 42.427 96.8728 42.4653 96.9971 42.5417C97.1213 42.6087 97.2169 42.6899 97.2839 42.7855C97.3603 42.8716 97.389 42.9241 97.3699 42.9433L95.0899 45.9547L97.3269 48.9374C97.346 48.966 97.3221 49.0282 97.2552 49.1238C97.1883 49.2098 97.0927 49.2911 96.9684 49.3676C96.8537 49.4345 96.715 49.4679 96.5525 49.4679C96.3709 49.4679 96.2084 49.4201 96.065 49.3245C95.9311 49.2194 95.8021 49.0712 95.6778 48.88L94.1434 46.7003L92.6521 48.8657C92.4035 49.2672 92.1071 49.4679 91.763 49.4679C91.61 49.4679 91.4714 49.4297 91.3471 49.3532C91.2228 49.2767 91.1272 49.1955 91.0603 49.1094C90.9934 49.0138 90.9695 48.9565 90.9886 48.9374L93.2687 45.9547ZM100.858 49.4536C100.428 49.4536 100.213 49.2289 100.213 48.7796V43.1153C100.213 42.6565 100.428 42.427 100.858 42.427H101.002C101.202 42.427 101.355 42.4796 101.46 42.5848C101.575 42.6899 101.633 42.8668 101.633 43.1153V45.3524H105.189V43.1153C105.189 42.6565 105.404 42.427 105.834 42.427H105.978C106.178 42.427 106.331 42.4796 106.436 42.5848C106.551 42.6899 106.609 42.8668 106.609 43.1153V48.7796C106.609 49.2289 106.398 49.4536 105.978 49.4536H105.834C105.404 49.4536 105.189 49.2289 105.189 48.7796V46.5282H101.633V48.7796C101.633 49.2289 101.422 49.4536 101.002 49.4536H100.858ZM115.705 42.427C115.935 42.427 116.112 42.5035 116.236 42.6565C116.36 42.7999 116.422 43.0054 116.422 43.2731V48.7653C116.422 49.2242 116.217 49.4536 115.806 49.4536H115.677C115.256 49.4536 115.046 49.2242 115.046 48.7653V44.3486L111.633 49.0091C111.508 49.1811 111.394 49.3006 111.289 49.3676C111.193 49.4249 111.04 49.4536 110.83 49.4536H110.715C110.495 49.4536 110.323 49.3819 110.199 49.2385C110.074 49.0855 110.012 48.8752 110.012 48.6075V43.1153C110.012 42.6565 110.218 42.427 110.629 42.427H110.772C111.193 42.427 111.403 42.6565 111.403 43.1153V47.3026L114.558 42.9863C114.711 42.776 114.845 42.6326 114.96 42.5561C115.084 42.47 115.251 42.427 115.461 42.427H115.705ZM125.762 48.8943C125.781 48.923 125.758 48.9852 125.691 49.0808C125.624 49.1764 125.523 49.2672 125.39 49.3532C125.265 49.4297 125.122 49.4679 124.959 49.4679C124.825 49.4679 124.696 49.4345 124.572 49.3676C124.448 49.3006 124.3 49.1764 124.128 48.9947L121.245 45.969V48.7796C121.245 49.2289 121.035 49.4536 120.614 49.4536H120.457C120.036 49.4536 119.826 49.2289 119.826 48.7796V43.1153C119.826 42.6565 120.041 42.427 120.471 42.427H120.614C120.815 42.427 120.968 42.4796 121.073 42.5848C121.188 42.6899 121.245 42.8668 121.245 43.1153V45.7396L123.912 42.9146C124.075 42.7329 124.223 42.6087 124.357 42.5417C124.491 42.4653 124.62 42.427 124.744 42.427C124.897 42.427 125.036 42.4653 125.16 42.5417C125.284 42.6182 125.375 42.7043 125.433 42.7999C125.49 42.8955 125.509 42.9576 125.49 42.9863L122.794 45.7969L125.762 48.8943ZM127.963 47.5894C127.963 46.8055 128.341 46.2271 129.096 45.8543C129.851 45.4814 131.017 45.2807 132.595 45.252H132.781V45.1086C132.781 44.5828 132.633 44.1813 132.337 43.904C132.05 43.6268 131.629 43.4882 131.075 43.4882C130.587 43.4882 130.176 43.5981 129.842 43.818C129.517 44.0283 129.268 44.3103 129.096 44.6641C129.096 44.6832 129.015 44.6784 128.852 44.6497C128.69 44.6115 128.541 44.5398 128.408 44.4346C128.283 44.3295 128.221 44.1765 128.221 43.9757C128.221 43.6889 128.379 43.4021 128.694 43.1153C128.953 42.8859 129.292 42.6995 129.713 42.5561C130.133 42.4031 130.621 42.3266 131.175 42.3266C132.15 42.3266 132.896 42.5656 133.412 43.0436C133.929 43.5216 134.187 44.2004 134.187 45.0799V49.3102C134.187 49.3484 134.129 49.3819 134.015 49.4106C133.909 49.4488 133.795 49.4679 133.67 49.4679C133.231 49.4679 132.958 49.2576 132.853 48.837C132.815 48.6649 132.796 48.5072 132.796 48.3638C132.528 48.7366 132.174 49.0282 131.734 49.2385C131.304 49.4488 130.831 49.554 130.315 49.554C129.588 49.554 129.015 49.3771 128.594 49.0234C128.173 48.6601 127.963 48.1821 127.963 47.5894ZM132.781 46.1411L132.394 46.1554C131.362 46.1936 130.597 46.3179 130.1 46.5282C129.603 46.7386 129.354 47.0732 129.354 47.532C129.354 47.838 129.469 48.0817 129.698 48.2634C129.928 48.445 130.248 48.5358 130.659 48.5358C131.28 48.5358 131.787 48.3638 132.179 48.0196C132.581 47.6659 132.781 47.2166 132.781 46.6716V46.1411ZM141.3 49.4679C141.166 49.4679 141.032 49.444 140.899 49.3962C140.774 49.3389 140.669 49.2767 140.583 49.2098C140.507 49.1333 140.478 49.0712 140.497 49.0234L143.795 40.5055C143.853 40.3429 143.958 40.2234 144.111 40.147C144.264 40.0705 144.498 40.0322 144.813 40.0322C145.138 40.0322 145.373 40.0705 145.516 40.147C145.669 40.2234 145.774 40.3429 145.832 40.5055L149.158 49.0234C149.178 49.0616 149.144 49.119 149.058 49.1955C148.982 49.2624 148.876 49.3245 148.743 49.3819C148.609 49.4393 148.475 49.4679 148.341 49.4679C147.93 49.4679 147.638 49.2385 147.466 48.7796L146.649 46.6716H142.935L142.118 48.794C141.955 49.2433 141.683 49.4679 141.3 49.4679ZM144.785 41.5523L143.293 45.4814H146.276L144.785 41.5523ZM155.696 42.3266C156.308 42.3266 156.857 42.4748 157.345 42.7712C157.842 43.0675 158.229 43.493 158.506 44.0474C158.784 44.5924 158.922 45.2233 158.922 45.9403C158.922 46.6477 158.784 47.2787 158.506 47.8332C158.229 48.3877 157.842 48.8179 157.345 49.1238C156.848 49.4297 156.284 49.5827 155.653 49.5827C155.108 49.5827 154.63 49.4632 154.219 49.2242C153.808 48.9756 153.497 48.6649 153.287 48.2921V51.5329C153.287 51.9822 153.076 52.2069 152.656 52.2069H152.498C152.077 52.2069 151.867 51.9822 151.867 51.5329V42.5848C151.867 42.5561 151.92 42.5226 152.025 42.4844C152.13 42.4461 152.249 42.427 152.383 42.427C152.852 42.427 153.134 42.6899 153.229 43.2157C153.258 43.3591 153.272 43.493 153.272 43.6172C153.836 42.7568 154.644 42.3266 155.696 42.3266ZM155.395 48.4068C156.035 48.4068 156.551 48.1821 156.943 47.7328C157.345 47.2835 157.546 46.6908 157.546 45.9547C157.546 45.4862 157.455 45.0656 157.273 44.6927C157.092 44.3199 156.838 44.0283 156.513 43.818C156.198 43.6077 155.834 43.5025 155.423 43.5025C154.907 43.5025 154.463 43.6316 154.09 43.8897C153.726 44.1383 153.454 44.4872 153.272 44.9365V46.3848C153.272 46.7672 153.368 47.1114 153.559 47.4173C153.75 47.7232 154.008 47.967 154.333 48.1487C154.659 48.3207 155.012 48.4068 155.395 48.4068ZM165.733 42.3266C166.345 42.3266 166.895 42.4748 167.382 42.7712C167.879 43.0675 168.267 43.493 168.544 44.0474C168.821 44.5924 168.96 45.2233 168.96 45.9403C168.96 46.6477 168.821 47.2787 168.544 47.8332C168.267 48.3877 167.879 48.8179 167.382 49.1238C166.885 49.4297 166.321 49.5827 165.69 49.5827C165.145 49.5827 164.667 49.4632 164.256 49.2242C163.845 48.9756 163.534 48.6649 163.324 48.2921V51.5329C163.324 51.9822 163.114 52.2069 162.693 52.2069H162.535C162.115 52.2069 161.904 51.9822 161.904 51.5329V42.5848C161.904 42.5561 161.957 42.5226 162.062 42.4844C162.167 42.4461 162.287 42.427 162.421 42.427C162.889 42.427 163.171 42.6899 163.267 43.2157C163.295 43.3591 163.31 43.493 163.31 43.6172C163.874 42.7568 164.682 42.3266 165.733 42.3266ZM165.432 48.4068C166.073 48.4068 166.589 48.1821 166.981 47.7328C167.382 47.2835 167.583 46.6908 167.583 45.9547C167.583 45.4862 167.492 45.0656 167.311 44.6927C167.129 44.3199 166.876 44.0283 166.551 43.818C166.235 43.6077 165.872 43.5025 165.461 43.5025C164.944 43.5025 164.5 43.6316 164.127 43.8897C163.764 44.1383 163.491 44.4872 163.31 44.9365V46.3848C163.31 46.7672 163.405 47.1114 163.597 47.4173C163.788 47.7232 164.046 47.967 164.371 48.1487C164.696 48.3207 165.05 48.4068 165.432 48.4068ZM172.644 49.4536C172.214 49.4536 171.999 49.2289 171.999 48.7796V39.7024C171.999 39.6737 172.052 39.6403 172.157 39.602C172.272 39.5638 172.391 39.5447 172.515 39.5447C173.118 39.5447 173.419 39.951 173.419 40.7636V48.7796C173.419 49.2289 173.209 49.4536 172.788 49.4536H172.644ZM176.48 45.9833C176.48 45.295 176.633 44.6736 176.939 44.1191C177.245 43.5551 177.665 43.1153 178.201 42.7999C178.736 42.4844 179.338 42.3266 180.008 42.3266C180.667 42.3266 181.246 42.4748 181.743 42.7712C182.24 43.058 182.627 43.4643 182.904 43.9901C183.182 44.5159 183.32 45.1182 183.32 45.7969V45.9116C183.32 46.0646 183.287 46.1745 183.22 46.2414C183.162 46.2988 183.052 46.3275 182.89 46.3275H177.799C177.799 46.3848 177.809 46.4709 177.828 46.5856C177.933 47.1496 178.191 47.6037 178.602 47.9479C179.023 48.2921 179.539 48.4641 180.151 48.4641C180.705 48.4641 181.155 48.3638 181.499 48.163C181.843 47.9527 182.116 47.6707 182.316 47.3169C182.335 47.2978 182.407 47.3122 182.531 47.36C182.665 47.3982 182.785 47.4747 182.89 47.5894C183.005 47.6946 183.062 47.838 183.062 48.0196C183.062 48.1726 182.995 48.3399 182.861 48.5215C182.727 48.7031 182.541 48.8704 182.302 49.0234C181.709 49.3962 180.983 49.5827 180.122 49.5827C179.405 49.5827 178.77 49.4345 178.215 49.1381C177.67 48.8322 177.245 48.4068 176.939 47.8619C176.633 47.3169 176.48 46.6908 176.48 45.9833ZM181.944 45.3667C181.905 44.7644 181.714 44.2864 181.37 43.9327C181.026 43.579 180.567 43.4021 179.993 43.4021C179.429 43.4021 178.946 43.5886 178.545 43.9614C178.143 44.3247 177.9 44.7931 177.814 45.3667H181.944Z" fill="white"/>
</g>
<defs>
<filter id="filter0_f_449_1555" x="-2.04541" y="-1.49854" width="63.1855" height="63.1855" filterUnits="userSpaceOnUse" color-interpolation-filters="sRGB">
<feFlood flood-opacity="0" result="BackgroundImageFix"/>
<feBlend mode="normal" in="SourceGraphic" in2="BackgroundImageFix" result="shape"/>
<feGaussianBlur stdDeviation="5" result="effect1_foregroundBlur_449_1555"/>
</filter>
<linearGradient id="paint0_linear_449_1555" x1="45.9226" y1="79.313" x2="84.9947" y2="93.6187" gradientUnits="userSpaceOnUse">
<stop stop-color="#3D73EB"/>
<stop offset="1" stop-color="#DE8FFF"/>
</linearGradient>
<linearGradient id="paint1_linear_449_1555" x1="54.0723" y1="81.3005" x2="100.248" y2="57.093" gradientUnits="userSpaceOnUse">
<stop stop-color="#3D73EB"/>
<stop offset="1" stop-color="#DE8FFF"/>
</linearGradient>
<linearGradient id="paint2_linear_449_1555" x1="96.3836" y1="77.7665" x2="52.9159" y2="89.0406" gradientUnits="userSpaceOnUse">
<stop stop-color="#3D73EB"/>
<stop offset="1" stop-color="#DE8FFF"/>
</linearGradient>
<linearGradient id="paint3_linear_449_1555" x1="75.0065" y1="27.4568" x2="97.66" y2="-37.4378" gradientUnits="userSpaceOnUse">
<stop stop-color="#3D73EB"/>
<stop offset="1" stop-color="#DE8FFF"/>
</linearGradient>
<clipPath id="clip0_449_1555">
<rect width="229.307" height="58.8222" fill="white" transform="translate(0 0.0888672)"/>
</clipPath>
</defs>
</svg>
